<svg width="32" height="32" viewBox="0 0 32 32" fill="none" xmlns="http://www.w3.org/2000/svg">
    <g filter="url(#filter0_d_516_632)">
        <path d="M15.1273 2.56C15.509 1.87764 16.491 1.87764 16.8727 2.56L17.6724 3.98954C17.9473 4.48079 18.5732 4.64851 19.0568 4.36049L20.4642 3.52234C21.136 3.12226 21.9864 3.61324 21.9758 4.39506L21.9536 6.03294C21.946 6.59578 22.4042 7.05401 22.9671 7.04639L24.6049 7.02421C25.3868 7.01362 25.8777 7.86402 25.4777 8.5358L24.6395 9.94315C24.3515 10.4268 24.5192 11.0527 25.0105 11.3276L26.44 12.1273C27.1224 12.509 27.1224 13.491 26.44 13.8727L25.0105 14.6724C24.5192 14.9473 24.3515 15.5732 24.6395 16.0568L25.4777 17.4642C25.8777 18.136 25.3868 18.9864 24.6049 18.9758L22.9671 18.9536C22.4042 18.946 21.946 19.4042 21.9536 19.9671L21.9758 21.6049C21.9864 22.3868 21.136 22.8777 20.4642 22.4777L19.0568 21.6395C18.5732 21.3515 17.9473 21.5192 17.6724 22.0105L16.8727 23.44C16.491 24.1224 15.509 24.1224 15.1273 23.44L14.3276 22.0105C14.0527 21.5192 13.4268 21.3515 12.9432 21.6395L11.5358 22.4777C10.864 22.8777 10.0136 22.3868 10.0242 21.6049L10.0464 19.9671C10.054 19.4042 9.59578 18.946 9.03294 18.9536L7.39506 18.9758C6.61324 18.9864 6.12226 18.136 6.52234 17.4642L7.36049 16.0568C7.64851 15.5732 7.48079 14.9473 6.98954 14.6724L5.56 13.8727C4.87764 13.491 4.87764 12.509 5.56 12.1273L6.98954 11.3276C7.48079 11.0527 7.64851 10.4268 7.36049 9.94315L6.52234 8.5358C6.12226 7.86402 6.61324 7.01362 7.39506 7.02421L9.03294 7.04639C9.59578 7.05401 10.054 6.59578 10.0464 6.03294L10.0242 4.39506C10.0136 3.61324 10.864 3.12226 11.5358 3.52234L12.9432 4.36049C13.4268 4.64851 14.0527 4.48079 14.3276 3.98954L15.1273 2.56Z" fill="#FA8264"/>
        <path d="M13 13L15.1213 15.1213L19.3635 10.8787" stroke="white" stroke-linecap="round" stroke-linejoin="round"/>
    </g>
    <defs>
        <filter id="filter0_d_516_632" x="0.0478516" y="0.0482292" width="31.9043" height="31.9035" filterUnits="userSpaceOnUse" color-interpolation-filters="sRGB">
            <feFlood flood-opacity="0" result="BackgroundImageFix"/>
            <feColorMatrix in="SourceAlpha" type="matrix" values="0 0 0 0 0 0 0 0 0 0 0 0 0 0 0 0 0 0 127 0" result="hardAlpha"/>
            <feOffset dy="3"/>
            <feGaussianBlur stdDeviation="2.5"/>
            <feComposite in2="hardAlpha" operator="out"/>
            <feColorMatrix type="matrix" values="0 0 0 0 0 0 0 0 0 0 0 0 0 0 0 0 0 0 0.1 0"/>
            <feBlend mode="normal" in2="BackgroundImageFix" result="effect1_dropShadow_516_632"/>
            <feBlend mode="normal" in="SourceGraphic" in2="effect1_dropShadow_516_632" result="shape"/>
        </filter>
    </defs>
</svg>
